<?xml version="1.0" encoding="UTF-8"?>
<svg id="Layer_1" width="full" height="full" data-name="Layer 1" xmlns="http://www.w3.org/2000/svg" viewBox="0 0 160.43 190.46">
  <defs>
    <style>
      .cls-1, .cls-2 {
        stroke-width: 0px;
      }

      .cls-3 {
        fill: #f30066;
      }

      .cls-3, .cls-4, .cls-5 {
        stroke: #000;
      }

      .cls-6 {
        fill: none;
        stroke: #3c236d;
        stroke-width: 6px;
      }

      .cls-6, .cls-5 {
        stroke-linecap: round;
        stroke-linejoin: round;
      }

      .cls-2 {
        fill: #d9d9d9;
      }

      .cls-5 {
        fill: #cf5929;
      }
    </style>
  </defs>
  <path class="cls-4" d="M86.02,184.45c8.43.53,19.93-1.19,30.56-4.57,9.68-3.08,17.25-9.99,19.96-12.5-1.48.1-2.77.36-4.03,1.17-6.69,4.32-13.5,8.37-16.25,9.23-3.52,1.1-6.78,2.63-9.26,2.64-1.21,0-4.31-2.16-5.88-4.42-1.58-2.27-3.55-3.79.38-4.38,3.93-.59,13.88-5.97,18.61-7.27,2.56-.71,10.2-2.27,11.41-2.45,1.21-.18,6.87.4,10.39-.84,3.53-1.24,7.54-5.42,7.12-8.22-.42-2.8-3.02-7.78-3.89-9.44h0c-.69-1.33-5.42-5.58,1.13-12.86,3.73-4.15,6.37-11.92,5.63.29-.58,9.67-2.36,12.99-2.96,15.22-.59,2.24,1.68,2.97,2.55,4.63,3.33,6.37,1.61,9.84.46,11.61h0c-1.07,1.65-2.48,3.84-7.94,4.65-2.32.35-4.21.34-5.85.37-.47.98-1.68,2.57-3.92,4.54-4.92,4.31-11.2,8.96-18.51,11.84-7.3,2.88-25.03,3.72-28.71,3.92-2.95.16-17.55-3.17-1.02-3.17Z"/>
  <path class="cls-5" d="M88.78,70.62c-2.01,1.02-7.25,3.23-16.63,4.64-4.52.8-3.73,10.22-3.75,16.3-.02,6.08,1.75,15.84,3.19,21.35,1.44,5.51,14.04.76,23.21-2.04,9.17-2.8,17.42-7.62,16.81-9.67h0c-.62-2.05-1.85-6.16-3.38-8.08-1.52-1.92-6.06-9.47-11.25-17.28-5.19-7.81-6.19-6.23-8.21-5.21Z"/>
  <path class="cls-5" d="M40.77,105.35c.38-3.63,3.01-12.97,6.94-23.94.28-1.59,1.07-4.81,2.04-4.96,1.21-.18,7.58,1.01,11.81.38,4.24-.63,3.35,3.79,2.97,7.43-.38,3.64,1.8,16.19,3.72,24.85,1.91,8.66-3.99,8.47-7.02,8.92-3.03.45-12.02-1.78-16.42-2.19-4.39-.42-4.43-6.85-4.04-10.49Z"/>
  <path class="cls-5" d="M104.42,59.33c-.8.84-1.7,3.12-5.92,5.9-3.05,2.39-2.61,3.25-2.45,4.3.16,1.05,3.71,4.1,5.74,7.37,2.04,3.27,6.87,10.78,9.79,17.86,2.92,7.08,6.18,4.08,7.84,2.76,1.66-1.32,4.27-4.57,9.53-10.73,5.27-6.15-.1-8.93-1.52-10.15-1.42-1.22-9.28-8.27-14.86-12.45-5.57-4.17-7.35-5.7-8.15-4.86Z"/>
  <path class="cls-5" d="M38.29,105.36c.33-3.99,2.75-14.72,8.68-28.85-.3.04-1.38-.15-3.29-1.3-2.38-1.43-2.32,1.06-4.77,5.36-2.45,4.3-5.64,11.94-6.17,16.67-.53,4.73-2.47,10.39,1.99,13.3,4.46,2.91,3.22-1.2,3.56-5.18Z"/>
  <path class="cls-5" d="M125.28,70.52c-2.94-3.14-13.28-10.18-18.64-12.95-.1-.7-.11-2.42.69-3.68,1-1.58,2.51-1.81,8.84,1.18,6.33,2.99,12.21,9.26,13.88,10.09,1.67.82,5.34,6.71,3.74,10.53-1.59,3.82-5.56-2.03-8.51-5.17Z"/>
  <path class="cls-5" d="M106.92,111.19c-4.33,2.08-16.37,6.38-28.26,9.6-8.17,1.22-4.29,8.51.31,20.7,4.61,12.19,8.55,13.75,10.67,13.43,2.12-.32,7.75-1.19,13.7-2.8,5.95-1.61,22.64-8.29,22.02-12.49-.63-4.2-6.72-18.38-9.38-25.86-2.66-7.47-4.72-4.66-9.05-2.58Z"/>
  <path class="cls-5" d="M63.72,122.31c-2.83-.29-7.77-.27-18.18-1.57.31.04.37,0-1.92-.43-2.87-.55-1.54,4.17,1.21,18.42,2.75,14.26,7.05,16.12,9.38,17.2,2.33,1.08,10.66.91,19.94.95,9.29.04,6.7-2.79,5.17-4.71-1.52-1.92-6.62-11.17-9.21-22.24-2.58-11.06-3.57-7.34-6.4-7.63Z"/>
  <path class="cls-5" d="M38.32,120.03c-.17-3.19-2.25-4.67-5.69-7.02-.38.89-1.02,3.52-.52,6.88.63,4.2,1.12,11.64,2.51,16.8,1.39,5.16,4.92,14.29,9.58,16.46,4.66,2.17.79-2.98-.94-6.3-1.73-3.32-4.77-23.61-4.94-26.81Z"/>
  <path class="cls-5" d="M79.07,160.8c-2.72.41-12.92.5-21.71-.33-4.07-.32-1.2,2.33.52,3.5,1.72,1.17,2.44,3.93,7.32,9.64,4.88,5.71,8.07,8.45,11.25,9.05,3.18.6,11.56.77,19.18,0,7.62-.78,4.93-2.17,3.21-3.34-1.72-1.17-6.69-5.44-11.78-12.55-5.09-7.11-5.28-6.37-8.01-5.96Z"/>
  <path class="cls-5" d="M106.81,155.93c-4.62,1.73-8.62,2.36-17.89,4.47,3.37,4.62,10.19,13.74,11.53,14.97,6.46,5.9,14.37.34,18.22-1.45,7.19-3.35,10.64-9.17,19.56-9.21,9.89-.05,8.74-1.43,11.24-5.38,2.5-3.95,1.8-6.11.77-8.82-1.02-2.71-3.56-4.9-2.76-6.03,3.74-5.22,3.66-14.31,3.54-17.15-.12-2.84-5.16,5.05-8.39,8.08-8.04,7.53-17.81,13.79-35.82,20.52Z"/>
  <path class="cls-5" d="M51.92,161.28c-1.22-1.96-2.79-2.09-5.01-2.47,1.28,3.03,4.68,9.75,8.04,12.39,4.21,3.31,14.03,8.99,10.59,6.65-3.45-2.35-12.4-14.6-13.62-16.57Z"/>
  <path class="cls-5" d="M131.98,88.48c-.75,1.19-5.36,7.6-15.4,16.97.51.64.77,2.93,2.65,7.23,2.35,5.37,9.74,25.98,10.65,25.84.91-.14,7.34-4.99,11.71-8.87,7-6.21,7.7-8.95,6.44-14.6-.93-4.15-4.98-14.64-9.42-23.64-4.44-9-5.88-4.13-6.63-2.94Z"/>
  <path class="cls-5" d="M135.28,81.55c.7-1.54,1.29-3.77,1.98-7.45,1.08,1.03,3.77,4.09,5.85,8.07,2.6,4.98,6.87,11.51,7.95,24.21,2.41,28.17-.78,7.15-1.5,4.39-.72-2.75-6.14-16.13-8.69-20.76-2.55-4.63-6.3-6.93-5.6-8.46Z"/>
  <path class="cls-5" d="M90.38,66.8c-1.41.93-13.55,4.53-21.17,5.31.56-5.93,1.97-17.83,3.18-18.01,1.51-.23,3.08-.1,6.05-.91,2.97-.8,3.13.25,5.42,3.12,2.29,2.88,7.93,9.55,6.52,10.47Z"/>
  <path class="cls-5" d="M68.46,54.7c-.09,1.44-.77,7.27-3.79,18.1-3.43.51-11.14,1.24-14.54.03-4.25-1.51-4.46-2.91-1.8-5.81,2.66-2.9,10.89-12,12.4-12.23,1.51-.23,7.82-1.53,7.72-.08Z"/>
  <path class="cls-5" d="M93.19,64.95c-1.42-1.22-4.07-6.55-9.91-12.47,2.14-1.51,6.82-4.46,8.36-4.11,1.92.43,5.26,2.07,9.77,5.34,4.51,3.26,1.39,5.16-.47,7.23-1.86,2.07-6.33,5.24-7.75,4.02Z"/>
  <path class="cls-5" d="M97.39,47.51c3.34,1.65,8.25,3.42,7.35,5.7-.37.29-1.25.76-1.82.27-.71-.61-3.6-3.4-6.18-4.08-2.58-.69-2.69-3.53.65-1.89Z"/>
  <path class="cls-4" d="M122.04,110.59c9.58-1.28,12.5-2.12,16.71-.46.11,1.61-.02,5.37-1.36,7.53-1.68,2.7-1.88,5.3-2.34,9.53-.46,4.24,3.01,17.26,9.82,24.57,6.81,7.31,2.69,6.08-6.24,6.03-8.93-.05-14.48,3.48-17.75,4.67-3.27,1.19-6.87,5.11-12.82,5.18-5.95.07-8.81-8.31-8.9-9.6-.15-2.21-1.28-8-3.49-13.35s-1.03-15.45-.52-19.04c.51-3.59,4.52-10.33,7.46-10.84,2.94-.52,9.85-2.92,19.43-4.2Z"/>
  <path class="cls-3" d="M126.41,143.88c-5.68-1.56-16.64-4.07-27.89-5.58-3.46-1.71,1.29-3,3.14-3.12l17.4-1.16c7.04-.47,20.42,5.11,19.64,4.51-.78-.59-5.44-3.52-9.27-5.2-3.83-1.69-7.93-1.74-12.78-2.06-4.86-.32-1.22-1.54,6.19-2.03,7.41-.49,11.69,2.46,22.71,5.93,11.02,3.47,11.85,10.44,5.72,13.44-6.12,2.99-19.17-3.16-24.86-4.73Z"/>
  <path class="cls-2" d="M117.6,122.22c-.83-1.24-2.89-6.09-6.33-8.79,2.18-.79,5.99-1.38,10.42-1.93,5.53-.69,7.96-1.82,8.41,4.94.34,5.15-2.15,5.44-5.12,5.64-2.96.2-6.55,1.39-7.38.15Z"/>
  <path class="cls-2" d="M99.4,119.51c-.46-1.26-.02-1.07,2.69-3.75,1.18-.83,7.94-4.21,12.41,2.84,3.74,5.9-.65,5.03-3.92,6.22-3.27,1.19-5.26.85-6.47-.68-1.22-1.54-4.25-3.37-4.71-4.63Z"/>
  <path class="cls-2" d="M98.13,129.72c-3.4-.74-3.2-4.2-.19-9.26,1.44,1.2,5.75,4.55,5.51,5.34-.31.99-1.92,4.66-5.32,3.91Z"/>
  <path class="cls-2" d="M131.12,121.02c-1.11.07.8-5.86-1.75-10.42.6-.36,4.57-.8,6.1-.12,1.92.84,4.02-1.31,1.73,6.73-1.42,4.98-4.96,3.74-6.08,3.81Z"/>
  <path class="cls-2" d="M103.06,163.73c-1.03,1.94-3.68-4.44-3.83-6.69,1.11-.07,4.25-.52,5.23.71,1.22,1.54,1.86-.16-1.4,5.98Z"/>
  <path class="cls-2" d="M105.89,166.75c-4.35-1.35-1.83-3.62.44-8.62,1.21-1.15,4.28-1.32,6.27-.92,2.55.51-.78,3.29-.73,5.87.08,4.16-3.2,4.54-5.99,3.67Z"/>
  <path class="cls-2" d="M125.6,152.51c.06-.04.11-.05.15-.06,2.29-.84,7.89-3.11,10.5-3.28,2.67-.18,2.73,1.97,2.44,3.07,1.14,2.19,2.6,5.41.11,5.23-3.39-.24-8.37.71-11.82,2.08-2.34.93-.23-7.15-1.22-7.11-.05.02-.1.04-.15.06Z"/>
  <path class="cls-2" d="M124.38,152.84c-.74.05-3.67.92-7.43,2.46-3.27,1.2-2.32,1.68-4.02,6.73-2.37,7.08.93,2.92,4.18,1.41,3.25-1.51,5-2.42,7.11-3.22,1.22-.46,1.37-8.44.16-7.39Z"/>
  <path class="cls-2" d="M142,157.41c-2.96.2-.95-2.96-2.28-6.11,1.58-.54,3.97-1.31,7.45,3.39,3.1,4.19-2.21,2.52-5.17,2.71Z"/>
  <path class="cls-5" d="M93.08,36.32c-2.3,3.19-4.31,5.23-5.23,6.15l-24.3,8c-2.97-.72-7.07-2.77-8.3-3.69-1.32-.99-4.98-15.32-4.31-15.69,3.38-1.85,35.69-10.26,37.52-10.46,7.3-.77,11.6,5.99,4.61,15.69Z"/>
  <path class="cls-5" d="M63.79,45.42c-.04.92.2,2.47,1.54,6.84,9.19,1.03,24.81-4.12,25.22-6.26.13-.68-1.85-6.86-2.78-6.59-.94.27-7.46,1.51-10.26,2.31-2.81.8-13.67,2.78-13.71,3.7Z"/>
  <path class="cls-6" d="M135.63,34.35c9.84,9.16,9.36,17.68-1.19,18.98s-27.08-5.11-36.92-14.27c-9.84-9.16-9.36-17.68,1.19-18.98s27.08,5.11,36.92,14.27Z"/>
  <path class="cls-5" d="M99.15,25.09c0,4.41-3.71,8-8.3,8s-8.3-3.59-8.3-8,3.71-8,8.3-8,8.3,3.59,8.3,8Z"/>
  <circle class="cls-1" cx="91.15" cy="25.09" r="2.15"/>
  <path class="cls-5" d="M46.3,27.7c6.39-2.61,23.32-7.54,36.13-10.5,4.05-.94,14.87-2.92,20.1-3.77,5.23-.85,4.61-8.3-.92-8.3-2.03,0-11.38,1.54-19.18,3.08-11.77,2.32-19.15,4.28-35.24,9.62-16.32,5.42-28.39,15.86-29.97,19.88-.76,1.93-5.48,14.76-8.19,32.91-4.63,31.06.25,55.36,1.79,61.2,3.52,13.37,2.85,13.26,3.73,11.14,4.02-9.63,4.91-6.95,2.66-12.68-1.94-4.93-6.4-26.93.43-59.67,3.02-14.51,6.53-26.13,8.47-29.23,1.94-3.1,11.52-10.13,20.19-13.67Z"/>
</svg>